<svg width="403" height="90" viewBox="0 0 403 90" fill="none" xmlns="http://www.w3.org/2000/svg">
<path d="M14.9961 53.5977C14.9961 50.6211 15.9219 47.8789 17.7734 45.3711C18.5703 44.293 19.4258 43.2617 20.3398 42.2773C23.9023 38.4336 25.6836 34.1914 25.6836 29.5508C25.6836 25.8242 24.1367 23.4453 21.043 22.4141C20.1289 22.1094 19.2031 21.957 18.2656 21.957C16.3438 21.957 14.5859 22.3438 12.9922 23.1172C11.3984 23.8906 10.2852 25.0391 9.65234 26.5625C10.8008 26.8906 11.7148 27.5234 12.3945 28.4609C13.0977 29.3984 13.4492 30.5938 13.4492 32.0469C13.4492 33.4766 12.9922 34.707 12.0781 35.7383C11.1875 36.7695 9.83984 37.2852 8.03516 37.2852C5.50391 37.2852 3.74609 36.125 2.76172 33.8047C2.38672 32.9609 2.19922 31.8828 2.19922 30.5703C2.19922 29.2344 2.52734 27.793 3.18359 26.2461C3.86328 24.6758 4.91797 23.2344 6.34766 21.9219C9.55859 19.0156 13.4844 17.5625 18.125 17.5625C22.7656 17.5625 26.5391 18.8281 29.4453 21.3594C32.3516 23.8906 33.8047 27.207 33.8047 31.3086C33.8047 35.4102 31.4609 39.6523 26.7734 44.0352C23.8438 46.7773 21.875 48.957 20.8672 50.5742C19.8594 52.168 19.2969 53.7031 19.1797 55.1797H14.9961V53.5977ZM12.1133 66.2891C12.1133 64.7891 12.6406 63.5117 13.6953 62.457C14.75 61.4023 16.0273 60.875 17.5273 60.875C19.0273 60.875 20.3047 61.4023 21.3594 62.457C22.4141 63.5117 22.9414 64.7891 22.9414 66.2891C22.9414 67.7891 22.4141 69.0664 21.3594 70.1211C20.3047 71.1758 19.0273 71.7031 17.5273 71.7031C16.0273 71.7031 14.75 71.1758 13.6953 70.1211C12.6406 69.0664 12.1133 67.7891 12.1133 66.2891ZM41.3984 49.5195H67.9414V55.25H41.3984V49.5195ZM221.996 66.8867C220.988 67.8477 220.484 69.2188 220.484 71H215.281V25.6133C215.281 23.9258 215.129 22.8242 214.824 22.3086C214.543 21.793 213.746 21.5352 212.434 21.5352H209.938V17.668C212.211 17.668 213.992 17.5039 215.281 17.1758C216.594 16.8242 217.52 16.5781 218.059 16.4375C218.621 16.2734 219.219 16.1914 219.852 16.1914C221.094 16.1914 221.902 16.5547 222.277 17.2812C222.676 17.9844 222.875 19.1211 222.875 20.6914V39.5352C225.383 36.2773 228.969 34.6484 233.633 34.6484C238.32 34.6484 242.035 36.1484 244.777 39.1484C247.543 42.125 248.926 46.5195 248.926 52.332C248.926 58.1445 247.484 62.832 244.602 66.3945C241.742 69.9336 237.734 71.7031 232.578 71.7031C228.336 71.7031 224.809 70.0977 221.996 66.8867ZM222.699 53.5977C222.699 57.8867 223.508 61.2734 225.125 63.7578C226.766 66.2422 228.98 67.4844 231.77 67.4844C234.535 67.4844 236.715 66.207 238.309 63.6523C239.926 61.0977 240.734 57.7109 240.734 53.4922C240.734 46.7656 239.141 42.2891 235.953 40.0625C234.805 39.2891 233.445 38.9023 231.875 38.9023C230.328 38.9023 228.992 39.2773 227.867 40.0273C226.742 40.7773 225.805 41.8086 225.055 43.1211C223.484 45.8164 222.699 49.3086 222.699 53.5977ZM255.148 53C255.148 50.1875 255.582 47.5977 256.449 45.2305C257.34 42.8398 258.57 40.8594 260.141 39.2891C263.234 36.1953 267.348 34.6484 272.48 34.6484C277.66 34.6484 281.832 36.207 284.996 39.3242C288.184 42.418 289.777 46.8242 289.777 52.543C289.777 58.2383 288.312 62.8555 285.383 66.3945C282.453 69.9336 278.152 71.7031 272.48 71.7031C266.809 71.7031 262.496 69.9922 259.543 66.5703C256.613 63.125 255.148 58.6016 255.148 53ZM272.48 67.4844C275.199 67.4844 277.402 66.2422 279.09 63.7578C280.801 61.2734 281.656 57.7812 281.656 53.2812C281.656 46.0391 279.828 41.5156 276.172 39.7109C275.047 39.1484 273.816 38.8672 272.48 38.8672C268.145 38.8672 265.32 41.4922 264.008 46.7422C263.539 48.5469 263.305 50.6562 263.305 53.0703C263.305 57.7109 264.148 61.2734 265.836 63.7578C267.547 66.2422 269.762 67.4844 272.48 67.4844ZM296.141 53C296.141 50.1875 296.574 47.5977 297.441 45.2305C298.332 42.8398 299.562 40.8594 301.133 39.2891C304.227 36.1953 308.34 34.6484 313.473 34.6484C318.652 34.6484 322.824 36.207 325.988 39.3242C329.176 42.418 330.77 46.8242 330.77 52.543C330.77 58.2383 329.305 62.8555 326.375 66.3945C323.445 69.9336 319.145 71.7031 313.473 71.7031C307.801 71.7031 303.488 69.9922 300.535 66.5703C297.605 63.125 296.141 58.6016 296.141 53ZM313.473 67.4844C316.191 67.4844 318.395 66.2422 320.082 63.7578C321.793 61.2734 322.648 57.7812 322.648 53.2812C322.648 46.0391 320.82 41.5156 317.164 39.7109C316.039 39.1484 314.809 38.8672 313.473 38.8672C309.137 38.8672 306.312 41.4922 305 46.7422C304.531 48.5469 304.297 50.6562 304.297 53.0703C304.297 57.7109 305.141 61.2734 306.828 63.7578C308.539 66.2422 310.754 67.4844 313.473 67.4844ZM372.008 66.3945C373.625 66.3945 374.434 64.6719 374.434 61.2266H377.844C378.008 61.9766 378.09 62.6445 378.09 63.2305C378.09 63.793 378.078 64.4258 378.055 65.1289C378.031 65.832 377.773 66.7344 377.281 67.8359C376.062 70.4141 373.754 71.7031 370.355 71.7031C366.98 71.7031 364.262 69.7695 362.199 65.9023C361.613 64.8008 361.039 63.6875 360.477 62.5625C358.953 59.4688 357.688 57.3594 356.68 56.2344C354.945 54.3359 352.848 53.3867 350.387 53.3867C350.199 53.3867 350.012 53.3867 349.824 53.3867C349.637 53.3867 349.449 53.3984 349.262 53.4219V63.3711C349.262 64.8242 349.566 65.8203 350.176 66.3594C350.809 66.875 352.25 67.1328 354.5 67.1328V71H336.324V67.1328C338.363 67.1328 339.758 66.8516 340.508 66.2891C341.281 65.7266 341.668 64.7539 341.668 63.3711V25.2969C341.668 23.6094 341.516 22.5078 341.211 21.9922C340.93 21.4766 340.133 21.2188 338.82 21.2188H335.973V17.3516C338.34 17.3516 340.191 17.1875 341.527 16.8594C342.863 16.5078 343.812 16.2617 344.375 16.1211C344.961 15.957 345.57 15.875 346.203 15.875C347.422 15.875 348.23 16.2266 348.629 16.9297C349.051 17.6328 349.262 18.7813 349.262 20.375V49.5898H351.055C354.922 46.8711 358.297 43.9531 361.18 40.8359C361.648 40.3438 362 39.9219 362.234 39.5703H356.152V35.3516H375.559V39.5703C371.199 39.6875 366.734 41.7734 362.164 45.8281C360.781 47.0234 359.398 48.3008 358.016 49.6602C361.859 51.1133 364.977 54.3594 367.367 59.3984C367.953 60.6641 368.492 61.8242 368.984 62.8789C369.477 63.9102 369.957 64.7539 370.426 65.4102C370.895 66.0664 371.422 66.3945 372.008 66.3945ZM385.297 66.4297C385.297 64.9297 385.836 63.6641 386.914 62.6328C387.992 61.5781 389.281 61.0508 390.781 61.0508C392.281 61.0508 393.57 61.5781 394.648 62.6328C395.727 63.6641 396.266 64.9297 396.266 66.4297C396.266 67.9062 395.727 69.1602 394.648 70.1914C393.594 71.1992 392.305 71.7031 390.781 71.7031C389.258 71.7031 387.957 71.1992 386.879 70.1914C385.824 69.1602 385.297 67.9062 385.297 66.4297Z" fill="#C5D1E2"/>
<path d="M75.9219 67.1328C77.9609 67.1328 79.2383 66.9336 79.7539 66.5352C80.2695 66.1133 80.5742 65.668 80.668 65.1992C80.7852 64.7305 80.8438 64.1445 80.8438 63.4414V41.8203C80.8438 40.9062 80.7266 40.3086 80.4922 40.0273C80.2812 39.7227 79.8125 39.5703 79.0859 39.5703H75.1133V35.3516H80.8438V31.8359C80.8438 26.375 82.1445 22.0508 84.7461 18.8633C87.3711 15.6523 90.8633 14.0469 95.2227 14.0469C98.1992 14.0469 100.566 14.9609 102.324 16.7891C104.105 18.5937 104.996 20.6797 104.996 23.0469C104.996 25.4141 104.117 26.9961 102.359 27.793C101.773 28.0508 101.164 28.1797 100.531 28.1797C99.2891 28.1797 98.1992 27.7578 97.2617 26.9141C96.3477 26.0703 95.8906 25.1328 95.8906 24.1016C95.8906 22.1328 96.7578 20.8555 98.4922 20.2695C98.1406 19.4492 97.6367 18.8398 96.9805 18.4414C96.3242 18.043 95.7266 17.8438 95.1875 17.8438C94.6719 17.8438 94.1562 17.8906 93.6406 17.9844C93.125 18.0547 92.6211 18.2422 92.1289 18.5469C89.7148 19.9766 88.5078 24.2422 88.5078 31.3438V35.3516H99.125V39.5703H88.5078V63.125C88.5078 64.9062 88.9062 66.0195 89.7031 66.4648C90.5234 66.9102 92.5977 67.1328 95.9258 67.1328V71H75.9219V67.1328ZM134.457 62.5977C134.457 65.3867 135.008 66.7812 136.109 66.7812C137.164 66.7812 137.938 66.4297 138.43 65.7266C138.922 65 139.168 63.6992 139.168 61.8242H142.859C142.883 62.1289 142.895 62.6094 142.895 63.2656C142.895 65.375 142.367 67.2031 141.312 68.75C140.023 70.7188 137.973 71.7031 135.16 71.7031C133.332 71.7031 131.773 71.1875 130.484 70.1562C129.195 69.125 128.305 67.7656 127.812 66.0781C124.414 69.8281 120.113 71.7031 114.91 71.7031C112.051 71.7031 109.555 70.8711 107.422 69.207C105.312 67.5195 104.258 65.1758 104.258 62.1758C104.258 56.9727 108.102 53.1289 115.789 50.6445C120.664 49.0977 123.582 48.0312 124.543 47.4453C125.504 46.8359 126.125 46.2266 126.406 45.6172C126.711 44.9844 126.863 44.2812 126.863 43.5078C126.863 42.125 126.184 40.9766 124.824 40.0625C123.465 39.125 121.695 38.6562 119.516 38.6562C117.336 38.6562 115.414 39.2422 113.75 40.4141C114.922 41.2812 115.508 42.3945 115.508 43.7539C115.508 45.1133 115.051 46.2031 114.137 47.0234C113.246 47.8438 112.156 48.2539 110.867 48.2539C109.602 48.2539 108.547 47.8672 107.703 47.0938C106.883 46.3203 106.473 45.2422 106.473 43.8594C106.473 41.1172 107.855 38.9023 110.621 37.2148C113.387 35.5039 116.75 34.6484 120.711 34.6484C127.789 34.6484 132.113 36.9453 133.684 41.5391C134.199 43.0625 134.457 44.8203 134.457 46.8125V62.5977ZM118.953 53.8438C116.891 54.7344 115.344 55.8828 114.312 57.2891C113.281 58.6719 112.766 60.1836 112.766 61.8242C112.766 63.4648 113.211 64.707 114.102 65.5508C114.992 66.3945 116.105 66.8164 117.441 66.8164C120.16 66.8164 122.41 65.8672 124.191 63.9688C125.973 62.0469 126.863 59.375 126.863 55.9531V50.5391C125.363 51.3125 123.77 52.0156 122.082 52.6484C120.418 53.2812 119.375 53.6797 118.953 53.8438ZM169.016 41.1523C167.656 39.5117 165.758 38.6914 163.32 38.6914C158.75 38.6914 155.773 41.293 154.391 46.4961C153.922 48.3242 153.688 50.5156 153.688 53.0703C153.688 57.8281 154.602 61.4141 156.43 63.8281C158.258 66.2422 160.543 67.4492 163.285 67.4492C165.301 67.4492 167.012 66.8633 168.418 65.6914C169.824 64.5195 170.797 62.8438 171.336 60.6641H176.152C176.152 63.5703 174.863 66.1367 172.285 68.3633C169.73 70.5898 166.25 71.7031 161.844 71.7031C157.461 71.7031 153.734 70.332 150.664 67.5898C147.055 64.3789 145.25 59.6562 145.25 53.4219C145.25 48.3359 146.75 43.9414 149.75 40.2383C152.773 36.5117 157.203 34.6484 163.039 34.6484C166.859 34.6484 170.047 35.5742 172.602 37.4258C175.156 39.2773 176.434 41.668 176.434 44.5977C176.434 46.0273 175.965 47.2344 175.027 48.2188C174.113 49.1797 172.941 49.6602 171.512 49.6602C169.473 49.6602 168.066 48.7109 167.293 46.8125C167.059 46.25 166.941 45.6289 166.941 44.9492C166.941 43.332 167.633 42.0664 169.016 41.1523ZM196.684 71.7031C189.301 71.7031 185.609 67.6016 185.609 59.3984V41.8203C185.609 40.9062 185.492 40.3086 185.258 40.0273C185.047 39.7227 184.578 39.5703 183.852 39.5703H180.969V35.3516H182.27C184.051 35.3516 185.352 34.7891 186.172 33.6641C187.016 32.5391 187.473 30.6875 187.543 28.1094L187.578 24.9805H193.203V35.3516H203.996V39.5703H193.203V59.293C193.203 63.6523 194.211 66.2539 196.227 67.0977C196.789 67.332 197.352 67.4492 197.914 67.4492C200.375 67.4492 201.98 65.4219 202.73 61.3672H206.809C206.574 66.1719 204.57 69.3594 200.797 70.9297C199.578 71.4453 198.207 71.7031 196.684 71.7031Z" fill="#7696FF"/>
</svg>
